<svg xmlns="http://www.w3.org/2000/svg" viewBox="0 0 640 360">
  <defs>
    <linearGradient id="sky" x1="0%" y1="0%" x2="100%" y2="100%">
      <stop offset="0%" stop-color="#dff3ff"/>
      <stop offset="100%" stop-color="#9fd5ff"/>
    </linearGradient>
    <linearGradient id="panel" x1="0%" y1="0%" x2="100%" y2="0%">
      <stop offset="0%" stop-color="#1a2237"/>
      <stop offset="100%" stop-color="#0f1526"/>
    </linearGradient>
  </defs>
  <rect width="640" height="360" rx="28" fill="url(#sky)"/>
  <g opacity="0.95">
    <circle cx="92" cy="72" r="24" fill="#ffffff"/>
    <circle cx="126" cy="72" r="30" fill="#ffffff"/>
    <circle cx="162" cy="72" r="22" fill="#ffffff"/>
  </g>
  <g opacity="0.85">
    <circle cx="492" cy="98" r="22" fill="#ffffff"/>
    <circle cx="522" cy="98" r="28" fill="#ffffff"/>
    <circle cx="554" cy="98" r="20" fill="#ffffff"/>
  </g>
  <rect x="48" y="224" width="544" height="88" rx="22" fill="url(#panel)"/>
  <text x="74" y="272" font-family="DejaVu Sans, Arial, sans-serif" font-size="54" font-weight="800" fill="#f4fbff">SMALL OLD GAMES</text>
  <text x="78" y="308" font-family="DejaVu Sans, Arial, sans-serif" font-size="28" font-weight="700" fill="#ffd45b">SKETCH HOPPER</text>
  <g transform="translate(470 118)">
    <ellipse cx="0" cy="52" rx="42" ry="48" fill="#7add39"/>
    <ellipse cx="-16" cy="72" rx="10" ry="14" fill="#1d1b1c"/>
    <ellipse cx="16" cy="72" rx="10" ry="14" fill="#1d1b1c"/>
    <ellipse cx="16" cy="30" rx="15" ry="11" fill="#ffa448"/>
    <circle cx="-14" cy="40" r="7" fill="#1d1b1c"/>
    <circle cx="12" cy="40" r="7" fill="#1d1b1c"/>
  </g>
  <rect x="396" y="246" width="176" height="16" rx="8" fill="#249d4c"/>
  <rect x="396" y="246" width="176" height="10" rx="5" fill="#59df72"/>
</svg>
